# AST/ASF file generated using VICON BodyLanguage
# -----------------------------------------------
:version 1.10
:name VICON
:units
  mass 1.0
  length 0.45
  angle deg
:documentation
   .ast/.asf automatically generated from VICON data using
   VICON BodyBuilder and BodyLanguage model FoxedUp or BRILLIANT.MOD
:root
   order TX TY TZ RX RY RZ
   axis XYZ
   position 0 0 0  
   orientation 0 0 0 
:bonedata
  begin
     id 1 
     name lhipjoint
     direction 0.567149 -0.783011 0.255413 
     length 2.28399 
     axis 0 0 0  XYZ
  end
  begin
     id 2 
     name lfemur
     direction 0.34202 -0.939693 0  
     length 7.34031  
     axis 0 0 20  XYZ
    dof rx ry rz
    limits (-160.0 20.0)
           (-70.0 70.0)
           (-60.0 70.0)
  end
  begin
     id 3 
     name ltibia
     direction 0.34202 -0.939693 0   
     length 6.9833   
     axis 0 0 20   XYZ
    dof rx
    limits (-10.0 170.0)
  end
  begin
     id 4 
     name lfoot
     direction 0.136498 -0.375025 0.91691   
     length 2.33665   
     axis -90 7.62852e-016 20   XYZ
    dof rx rz
    limits (-45.0 90.0)
           (-70.0 20.0)
  end
  begin
     id 5 
     name ltoes
     direction 1.5367e-011 -4.21617e-011 1   
     length 1.15039   
     axis -90 7.62852e-016 20   XYZ
    dof rx
    limits (-90.0 20.0)
  end
  begin
     id 6 
     name rhipjoint
     direction -0.602854 -0.758518 0.247423   
     length 2.35775  
     axis 0 0 0  XYZ 
  end
  begin
     id 7 
     name rfemur
     direction -0.34202 -0.939693 0   
     length 7.43932   
     axis 0 0 -20   XYZ
    dof rx ry rz
    limits (-160.0 20.0)
           (-70.0 70.0)
           (-70.0 60.0)
  end
  begin
     id 8 
     name rtibia
     direction -0.34202 -0.939693 0   
     length 7.11893   
     axis 0 0 -20   XYZ
    dof rx
    limits (-10.0 170.0)
 end
 begin
     id 9 
     name rfoot
     direction -0.131771 -0.362037 0.922803   
     length 2.53019  
     axis -90 -7.62852e-016 -20   XYZ
    dof rx rz
    limits (-45.0 90.0)
           (-20.0 70.0)
  end
  begin
     id 10 
     name rtoes
     direction -1.53733e-011 -4.21932e-011 1   
     length 1.24596   
     axis -90 -7.62852e-016 -20   XYZ
    dof rx
    limits (-90.0 20.0)
  end
  begin
     id 11 
     name lowerback
     direction 0.0235427 0.999023 -0.0374125   
     length 2.21768   
     axis 0 0 0   XYZ
    dof rx ry rz
    limits (-20.0 45.0)
           (-30.0 30.0)
           (-30.0 30.0)
  end
  begin
     id 12 
     name upperback
     direction 0.0302156 0.996818 -0.073759   
     length 2.20352   
     axis 0 0 0   XYZ
    dof rx ry rz
    limits (-20.0 45.0)
           (-30.0 30.0)
           (-30.0 30.0)
  end
  begin
     id 13 
     name thorax
     direction 0.0187169 0.998235 -0.0563532   
     length 2.22103   
     axis 0 0 0   XYZ
    dof rx ry rz
    limits (-20.0 45.0)
           (-30.0 30.0)
           (-30.0 30.0)
  end
  begin
     id 14 
     name lowerneck
     direction -0.119528 0.987423 0.103481   
     length 1.72948   
     axis 0 0 0   XYZ
    dof rx ry rz
    limits (-20.0 45.0)
           (-30.0 30.0)
           (-30.0 30.0)
  end
  begin
     id 15 
     name upperneck
     direction 0.248049 0.963095 -0.104496   
     length 1.74979   
     axis 0 0 0   XYZ
    dof rx ry rz
    limits (-20.0 45.0)
           (-30.0 30.0)
           (-30.0 30.0)
  end
  begin
     id 16
     name head
     direction 0.0903589 0.994284 -0.056876  
     length 1.78268  
     axis 0 0 0   XYZ
    dof rx ry rz
    limits (-20.0 45.0)
           (-30.0 30.0)
           (-30.0 30.0)
  end
  begin
     id 17 
     name lclavicle
     direction 0.946008 0.242039 -0.215608  
     length 3.80783  
     axis 0 0 0   XYZ
    dof ry rz
    limits (-20.0 10.0)
           (0.0 20.0)
  end
  begin
     id 18 
     name lhumerus
     direction 1 -4.48991e-011 -2.25695e-027   
     length 4.83125   
     axis 180 -30 -90   XYZ
    dof rx ry rz
    limits (-60.0 90.0)
           (-90.0 90.0)
           (-90.0 90.0)
  end
  begin
     id 19
     name lradius
     direction 0.999991 0.00366712 -0.00211721   
     length 3.00391   
     axis 180 -30 -90   XYZ
    dof rx
    limits (-10.0 170.0)
  end
  begin
     id 20
     name lwrist
     direction 0.999991 0.00393016 -0.00141978   
     length 1.50195   
     axis -1.00488e-014 90 90   XYZ
    dof ry
    limits (-180.0 0.0)
 end
  begin
     id 21 
     name lhand
     direction 1 -4.49123e-011 2.72098e-026   
     length 1.2717   
     axis -1.73687e-014 90 90   XYZ
    dof rx rz
    limits (-90.0 90.0)
           (-45.0 45.0)
  end
  begin
     id 22 
     name lfingers
     direction 1 -4.48678e-011 5.4479e-026   
     length 1.02528   
     axis -3.47372e-014 90 90   XYZ
    dof rx
    limits (0.0 90.0)
  end
  begin
     id 23
     name lthumb
     direction 0.707107 -6.34851e-011 0.707107   
     length 1.4721   
     axis -90 45 -1.62303e-014   XYZ
    dof rx rz
    limits (-45.0 45.0)
           (-45.0 45.0)
  end
  begin
     id 24 
     name rclavicle
     direction -0.981723 0.189447 -0.0181673   
     length 3.74989  
     axis 0 0 0   XYZ 
    dof ry rz
    limits (-10.0 20.0)
           (-20.0 0.0)
  end
  begin
     id 25 
     name rhumerus
     direction -1 -4.48985e-011 2.38206e-027  
     length 4.61118   
     axis 180 30 90   XYZ
    dof rx ry rz
    limits (-90.0 60.0)
           (-90.0 90.0)
           (-90.0 90.0)
  end
  begin
     id 26 
     name rradius
     direction -1 -4.48977e-011 7.41019e-027   
     length 2.91491   
     axis 180 30 90   XYZ
    dof rx
    limits (-10.0 170.0)
  end
  begin
     id 27 
     name rwrist
     direction -1 -4.48549e-011 1.3624e-026   
     length 1.45745   
     axis -1.00488e-014 -90 -90   XYZ
    dof ry
    limits (-180.0 0.0)
  end
  begin
     id 28
     name rhand
     direction -1 -4.49107e-011 2.72109e-026   
     length 1.30769   
     axis -1.73687e-014 -90 -90   XYZ
    dof rx rz
    limits (-90.0 90.0)
           (-45.0 45.0)
  end
  begin
     id 29
     name rfingers
     direction -1 -4.48919e-011 5.44468e-026   
     length 1.05429   
     axis -3.47372e-014 -90 -90   XYZ
    dof rx
    limits (0.0 90.0)
  end
  begin
     id 30
     name rthumb
     direction -0.707107 -6.35315e-011 0.707107   
     length 1.51376   
     axis -90 -45 1.62303e-014   XYZ
    dof rx rz
    limits (-45.0 45.0)
           (-45.0 45.0)
  end
:hierarchy
  begin
    root lhipjoint rhipjoint lowerback
    lhipjoint lfemur
    lfemur ltibia
    ltibia lfoot
    lfoot ltoes
    rhipjoint rfemur
    rfemur rtibia
    rtibia rfoot
    rfoot rtoes
    lowerback upperback
    upperback thorax
    thorax lowerneck lclavicle rclavicle
    lowerneck upperneck
    upperneck head
    lclavicle lhumerus
    lhumerus lradius
    lradius lwrist
    lwrist lhand lthumb
    lhand lfingers
    rclavicle rhumerus
    rhumerus rradius
    rradius rwrist
    rwrist rhand rthumb
    rhand rfingers
  end

#!OML:ASF X:\für Bonn\!DataBase\2005_08_11_Bastian_Final\c3d\Bastian.ASF
:FULLY-SPECIFIED
:DEGREES
1
root -1.25229 17.1245 4.87735 165.426 -20.6752 -177.505
lowerback 4.73753 -1.87794 1.34744
upperback 6.89262 -2.98742 -0.172642
thorax 4.4008 -1.64021 -0.922042
lowerneck -4.96762 -8.04988 -0.513673
upperneck -3.82655 -10.901 6.06451
head 0.0192407 -5.55487 1.76978
rclavicle -2.87741e-014 -2.18663e-015
rhumerus -37.9766 34.0146 -96.7128
rradius 43.0213
rwrist -13.9993
rhand -38.8721 7.50868
rfingers 7.12502
rthumb -11.8804 -22.1343
lclavicle -2.87741e-014 -2.18663e-015
lhumerus -17.8476 -30.1909 93.9928
lradius 62.2227
lwrist -7.32466
lhand -47.0991 -4.16018
lfingers 7.12502
lthumb -19.8025 24.851
rfemur 4.07144 -9.81769 21.2276
rtibia 43.6333
rfoot -22.7537 -19.2268
rtoes -5.24953
lfemur 3.73968 -1.45197 -16.2475
ltibia 33.6418
lfoot -16.0715 -6.88995
ltoes -17.76
2
root -1.2966 17.1314 4.89695 165.265 -20.8281 -177.439
lowerback 5.13088 -2.02506 1.38337
upperback 6.99476 -3.20239 -0.161114
thorax 4.28231 -1.75771 -0.912787
lowerneck -5.04094 -8.01717 -0.410257
upperneck -3.91769 -10.8677 6.08076
head -0.00305097 -5.54399 1.75825
rclavicle -3.95147e-014 3.97569e-016
rhumerus -38.4142 33.7098 -97.2212
rradius 41.7492
rwrist -15.5658
rhand -38.6796 7.04328
rfingers 7.12502
rthumb -11.6947 -22.6103
lclavicle -3.95147e-014 3.97569e-016
lhumerus -16.582 -30.5521 93.6335
lradius 63.8348
lwrist -7.47296
lhand -47.5485 -4.59409
lfingers 7.12502
lthumb -20.2345 24.372
rfemur 3.56805 -10.0982 20.843
rtibia 44.7451
rfoot -21.9024 -18.8223
rtoes -5.07639
lfemur 3.97777 -1.48164 -16.374
ltibia 33.3999
lfoot -15.8619 -7.00546
ltoes -17.0772
3
root -1.3397 17.1376 4.91917 165.08 -20.9939 -177.367
lowerback 5.57222 -2.17745 1.40933
upperback 7.1101 -3.42725 -0.147378
thorax 4.15186 -1.88245 -0.891462
lowerneck -5.15774 -7.98194 -0.336189
upperneck -3.98082 -10.8321 6.12662
head -0.00602435 -5.53068 1.75788
rclavicle -7.28111e-014 2.08724e-014
rhumerus -38.8118 33.4013 -97.6894
rradius 40.641
rwrist -17.2763
rhand -38.503 6.53432
rfingers 7.12502
rthumb -11.5243 -23.1289
lclavicle -7.28111e-014 2.08724e-014
lhumerus -15.2296 -30.959 93.2055
lradius 65.4724
lwrist -7.48438
lhand -48.0083 -5.10728
lfingers 7.12502
lthumb -20.6764 23.8113
rfemur 2.97824 -10.3002 20.5128
rtibia 46.0149
rfoot -20.9145 -18.5772
rtoes -4.9059
lfemur 4.22159 -1.52304 -16.4904
ltibia 33.1644
lfoot -15.6195 -7.13538
ltoes -16.2435
4
root -1.38237 17.144 4.94329 164.88 -21.1456 -177.319
lowerback 6.04926 -2.32688 1.407
upperback 7.23786 -3.65194 -0.126986
thorax 4.01736 -2.01027 -0.843708
lowerneck -5.28726 -7.94781 -0.327173
upperneck -4.03362 -10.7947 6.19362
head 0.0012243 -5.51511 1.77374
rclavicle 7.18358e-014 -1.17283e-014
rhumerus -39.2307 33.1984 -98.1426
rradius 39.7179
rwrist -19.1032
rhand -38.4057 5.82635
rfingers 7.12502
rthumb -11.4305 -23.8421
lclavicle 7.18358e-014 -1.17283e-014
lhumerus -13.7834 -31.34 92.7352
lradius 67.1018
lwrist -7.48542
lhand -48.4608 -5.6712
lfingers 7.12502
lthumb -21.1111 23.1995
rfemur 2.28494 -10.3993 20.2007
rtibia 47.4563
rfoot -19.7687 -18.458
rtoes -4.89279
lfemur 4.48627 -1.5049 -16.6218
ltibia 32.9177
lfoot -15.3775 -7.28377
ltoes -15.63
5
root -1.42383 17.1509 4.96885 164.685 -21.314 -177.297
lowerback 6.55087 -2.48369 1.35599
upperback 7.36665 -3.88959 -0.0998576
thorax 3.87448 -2.14797 -0.757648
lowerneck -5.41457 -7.91321 -0.382256
upperneck -4.07658 -10.753 6.29097
head 0.0165009 -5.49615 1.8094
rclavicle -6.28657e-015 3.18055e-015
rhumerus -39.665 33.1277 -98.5988
rradius 38.9275
rwrist -21.0547
rhand -38.4514 5.05361
rfingers 7.12502
rthumb -11.4746 -24.6124
lclavicle -6.28657e-015 3.18055e-015
lhumerus -12.3045 -31.663 92.236
lradius 68.7474
lwrist -7.49147
lhand -48.8533 -6.28538
lfingers 7.12502
lthumb -21.4881 22.5428
rfemur 1.46591 -10.4687 19.8709
rtibia 49.075
rfoot -18.4747 -18.3289
rtoes -4.75271
lfemur 4.78219 -1.55422 -16.7912
ltibia 32.6086
lfoot -15.0881 -7.40125
ltoes -14.7146
6
root -1.46325 17.1597 4.99504 164.492 -21.4833 -177.284
lowerback 7.08335 -2.63431 1.30396
upperback 7.48476 -4.11802 -0.0931772
thorax 3.70362 -2.28088 -0.687178
lowerneck -5.5527 -7.87943 -0.380943
upperneck -4.10479 -10.7163 6.35627
head 0.0331612 -5.47984 1.82501
rclavicle 3.09234e-014 -5.76476e-015
rhumerus -40.0701 33.0176 -99.0378
rradius 38.1762
rwrist -22.883
rhand -38.5414 4.23466
rfingers 7.12502
rthumb -11.5614 -25.4264
lclavicle 3.09234e-014 -5.76476e-015
lhumerus -10.7897 -32.0176 91.6782
lradius 70.355
lwrist -7.51547
lhand -49.2612 -6.89102
lfingers 7.12502
lthumb -21.8798 21.8919
rfemur 0.499372 -10.4753 19.5493
rtibia 50.8744
rfoot -16.9785 -18.1792
rtoes -4.73387
lfemur 5.0969 -1.53269 -16.9433
ltibia 32.2419
lfoot -14.7543 -7.56858
ltoes -13.8014
7
root -1.50298 17.1739 5.02198 164.288 -21.6619 -177.309
lowerback 7.64406 -2.79195 1.20468
upperback 7.6185 -4.36259 -0.0795832
thorax 3.5388 -2.42599 -0.578677
lowerneck -5.68351 -7.84093 -0.464692
upperneck -4.15341 -10.6678 6.4592
head 0.0489228 -5.4573 1.86752
rclavicle 1.91951e-015 1.49089e-015
rhumerus -40.3946 32.8961 -99.3725
rradius 37.4358
rwrist -24.5536
rhand -38.6696 3.44322
rfingers 7.12502
rthumb -11.685 -26.2109
lclavicle 1.91951e-015 1.49089e-015
lhumerus -9.17438 -32.2442 91.1172
lradius 71.8994
lwrist -7.62751
lhand -49.6505 -7.44655
lfingers 7.12502
lthumb -22.2536 21.2922
rfemur -0.559283 -10.4701 19.1691
rtibia 52.8302
rfoot -15.1897 -17.9719
rtoes -4.8721
lfemur 5.48171 -1.50861 -17.1389
ltibia 31.7944
lfoot -14.3968 -7.72639
ltoes -12.8827
8
root -1.54018 17.1861 5.04953 164.08 -21.8429 -177.326
lowerback 8.21859 -2.94466 1.096
upperback 7.75387 -4.60325 -0.0716256
thorax 3.37068 -2.57011 -0.466892
lowerneck -5.8445 -7.80133 -0.520278
upperneck -4.15044 -10.6214 6.5664
head 0.0845331 -5.43422 1.90409
rclavicle 2.84262e-014 -5.1684e-015
rhumerus -40.6465 32.7272 -99.6592
rradius 36.6954
rwrist -25.9975
rhand -38.8248 2.71777
rfingers 7.12502
rthumb -11.8347 -26.9278
lclavicle 2.84262e-014 -5.1684e-015
lhumerus -7.49894 -32.4629 90.5179
lradius 73.3424
lwrist -7.8909
lhand -50.0822 -7.92006
lfingers 7.12502
lthumb -22.668 20.7687
rfemur -1.75995 -10.4179 18.8131
rtibia 54.9293
rfoot -13.1199 -17.7224
rtoes -5.48647
lfemur 5.87655 -1.41276 -17.2906
ltibia 31.2886
lfoot -13.9954 -7.95346
ltoes -12.0812
